<svg width="48" height="48" viewBox="0 0 48 48" fill="none" xmlns="http://www.w3.org/2000/svg">
<path fill-rule="evenodd" clip-rule="evenodd" d="M24 9.5C17.864 9.5 12.858 14.5416 12.858 20.8C12.858 27.0584 17.864 32.1 24 32.1C30.136 32.1 35.142 27.0584 35.142 20.8C35.142 14.5416 30.136 9.5 24 9.5ZM9.85802 20.8C9.85802 12.92 16.1721 6.5 24 6.5C31.8279 6.5 38.142 12.92 38.142 20.8C38.142 28.68 31.8279 35.1 24 35.1C16.1721 35.1 9.85802 28.68 9.85802 20.8ZM40 38.5V41.5H8V38.5H40Z" fill="#2A2B2E"/>
</svg>
