<svg width="24" height="24" viewBox="0 0 24 24" fill="none" xmlns="http://www.w3.org/2000/svg">
<path d="M12 22C10.5565 20.8032 9.21849 19.4911 7.99999 18.0774C6.17142 15.9545 4 12.7929 4 9.78016C3.99921 8.24153 4.46801 6.73725 5.34708 5.4577C6.22614 4.17815 7.47596 3.18085 8.93835 2.592C10.4007 2.00316 12.01 1.84925 13.5624 2.14975C15.1148 2.45025 16.5406 3.19165 17.6594 4.28012C18.4043 5.00094 18.9946 5.85819 19.3964 6.80227C19.7982 7.74635 20.0033 8.7585 20 9.78016C20 12.7929 17.8285 15.9545 16 18.0774C14.7815 19.4911 13.4435 20.8032 12 22ZM12 6.44748C11.0907 6.44748 10.2186 6.7986 9.57562 7.4236C8.93264 8.0486 8.57142 8.89628 8.57142 9.78016C8.57142 10.664 8.93264 11.5117 9.57562 12.1367C10.2186 12.7617 11.0907 13.1128 12 13.1128C12.9093 13.1128 13.7814 12.7617 14.4243 12.1367C15.0673 11.5117 15.4285 10.664 15.4285 9.78016C15.4285 8.89628 15.0673 8.0486 14.4243 7.4236C13.7814 6.7986 12.9093 6.44748 12 6.44748Z" fill="#A7C1C7"/>
</svg>
