<svg width="24" height="24" viewBox="0 0 24 24" fill="none" xmlns="http://www.w3.org/2000/svg">
<path d="M19.2364 15.2748L16.6912 14.9842C16.392 14.949 16.0886 14.9822 15.804 15.0811C15.5194 15.18 15.2609 15.3422 15.0479 15.5553L13.2042 17.3991C10.3597 15.9524 8.04761 13.6403 6.60092 10.7957L8.45465 8.94199C8.88552 8.51112 9.09594 7.90991 9.0258 7.29868L8.73522 4.77358C8.67841 4.28477 8.44382 3.83392 8.07613 3.50687C7.70843 3.17982 7.2333 2.99942 6.7412 3H5.00771C3.87544 3 2.93354 3.9419 3.00368 5.07419C3.53475 13.6315 10.3785 20.4652 18.9257 20.9963C20.058 21.0665 20.9999 20.1246 20.9999 18.9923V17.2588C21.0099 16.2467 20.2484 15.395 19.2364 15.2748Z" fill="white"/>
</svg>
