<svg width="24" height="24" viewBox="0 0 24 24" fill="none" xmlns="http://www.w3.org/2000/svg">
<path d="M22 5.74514C21.2645 6.07388 20.4744 6.296 19.6438 6.3964C20.5008 5.87912 21.142 5.06498 21.4477 4.1059C20.6425 4.58834 19.7612 4.92792 18.8422 5.10988C18.2242 4.44429 17.4057 4.00313 16.5136 3.85488C15.6216 3.70664 14.706 3.85961 13.909 4.29004C13.1119 4.72047 12.4781 5.40429 12.1058 6.23532C11.7336 7.06635 11.6437 7.9981 11.8503 8.88591C10.2187 8.80328 8.62259 8.37553 7.16553 7.63041C5.70847 6.88529 4.42301 5.83947 3.39258 4.5608C3.04025 5.17385 2.83766 5.88464 2.83766 6.64162C2.83727 7.32308 3.00364 7.9941 3.32201 8.59514C3.64038 9.19619 4.10091 9.70868 4.66273 10.0871C4.01117 10.0662 3.37397 9.88864 2.80419 9.56915V9.62246C2.80413 10.5782 3.13189 11.5046 3.73186 12.2444C4.33184 12.9841 5.16707 13.4917 6.09583 13.681C5.4914 13.846 4.85769 13.8703 4.24258 13.7521C4.50462 14.5745 5.01506 15.2936 5.70243 15.8089C6.3898 16.3241 7.21969 16.6096 8.07593 16.6255C6.62242 17.7764 4.82735 18.4007 2.97948 18.398C2.65215 18.3981 2.32509 18.3788 2 18.3402C3.87569 19.5567 6.05914 20.2023 8.28909 20.1998C15.8378 20.1998 19.9644 13.8934 19.9644 8.42391C19.9644 8.24621 19.96 8.06674 19.9521 7.88904C20.7548 7.30351 21.4476 6.57844 21.9982 5.74781L22 5.74514Z" fill="white"/>
</svg>
